<svg xmlns="http://www.w3.org/2000/svg" viewBox="0 0 532.7 155.11"><defs><style>.cls-1{fill:none;stroke:#5c5962;stroke-linecap:round;stroke-linejoin:round;stroke-width:11.08px;}.cls-2{fill:#5c5962;}</style></defs><g id="Layer_2" data-name="Layer 2"><g id="Layer_1-2" data-name="Layer 1"><path class="cls-1" d="M194.35,77.56a72,72,0,1,0,72-72,72,72,0,0,0-72,72"/><path class="cls-1" d="M227.58,99.71V58.09a2.7,2.7,0,0,1,2.69-2.69h0A2.67,2.67,0,0,1,232.72,57l8.35,18.56a3.46,3.46,0,0,0,3.13,2h0a3.45,3.45,0,0,0,3.12-2L255.67,57a2.67,2.67,0,0,1,2.45-1.58h0a2.69,2.69,0,0,1,2.69,2.69V99.71M294.05,55.4V99.71M283,88.63l11.08,11.08,11.07-11.08"/><g id="wikilinks"><path class="cls-2" d="M62.84,155.11H0c0-2,.13-9.32.27-21.7s.26-30.49.26-54.32V43.27C.53,28.63.4,14.25.13,0H63V10.25H15.71c-.13,14.25-.27,27-.27,38.35V78.15c0,18,.14,32.23.27,42.61s.27,18.37.27,24H63.11Z"/><path class="cls-2" d="M155,155.11H92.13c0-2,.14-9.32.27-21.7s.27-30.49.27-54.32V43.27c0-14.64-.14-29-.4-43.27h62.84V10.25H107.85c-.14,14.25-.27,27-.27,38.35V78.15c0,18,.13,32.23.27,42.61s.26,18.37.26,24h47.13Z"/><path class="cls-2" d="M440.7,155.11H377.86V144.86H425c0-6.13.13-15.05.27-26.63s.26-24.9.26-40.08V47.4c0-12.92-.13-25.17-.26-37.15H378V0h62.85q-.4,21.17-.4,43.54V79c0,16.25.13,32.49.26,48.73C440.57,143.93,440.7,153.11,440.7,155.11Z"/><path class="cls-2" d="M532.7,155.11H469.86V144.86H517c0-6.13.14-15.05.27-26.63s.27-24.9.27-40.08V47.4c0-12.92-.14-25.17-.27-37.15H470.13V0H532.7q-.39,21.17-.4,43.54V79c0,16.25.14,32.49.27,48.73S532.7,153.11,532.7,155.11Z"/></g></g></g></svg>